<svg id="Layer_1" data-name="Layer 1" xmlns="http://www.w3.org/2000/svg" viewBox="0 0 500 500"><defs><style>.cls-1{fill:#e0e0e0;}.cls-2{fill:#494949;}.cls-3{fill:#c4c4c4;}.cls-4{fill:#3d3d3d;}.cls-5{fill:none;stroke:#000;stroke-linecap:round;stroke-linejoin:round;stroke-width:15px;}.cls-6{fill:#969696;}</style></defs><title>headphones</title><path class="cls-1" d="M355.9,307.44a17.46,17.46,0,0,1,22.23-5.51L403.3,314.8a13.52,13.52,0,0,1,7.24,10.29l6.41,49.6v0c-31.53,66.38-72.83,113.14-72.83,113.14L317,492.5a13.43,13.43,0,0,1-8.47-1.31L282,477.48a17.49,17.49,0,0,1-8.19-22C299.26,391.34,338.46,332.24,355.9,307.44Z"/><path class="cls-2" d="M303.82,488.74,282,477.48a17.49,17.49,0,0,1-8.19-22c25.44-64.12,64.64-123.22,82.08-148a17.46,17.46,0,0,1,22.23-5.51l21.7,11.1Z"/><path class="cls-3" d="M282,477.48l26.56,13.71A13.43,13.43,0,0,0,317,492.5l27.07-4.64s41.3-46.76,72.83-113.14v0l-1-7.54c-38.31,37.82-96,55.34-131.29,62.92-3.81,8.33-7.47,16.81-10.87,25.39A17.49,17.49,0,0,0,282,477.48Z"/><path class="cls-4" d="M284.69,430.07h0c-.93,2.05-1.86,4.12-2.78,6.19l0,.1c-.86,1.93-1.7,3.88-2.54,5.83l-.25.58c-.77,1.78-1.51,3.56-2.26,5.35-.14.35-.29.69-.43,1q-1.28,3.09-2.51,6.2a.36.36,0,0,0,0,.09,17.49,17.49,0,0,0,8.19,22l21.81,11.26,42.36-77.53A364.75,364.75,0,0,1,284.69,430.07Z"/><path class="cls-5" d="M355.9,307.44a17.46,17.46,0,0,1,22.23-5.51L403.3,314.8a13.52,13.52,0,0,1,7.24,10.29l6.41,49.6v0c-31.53,66.38-72.83,113.14-72.83,113.14L317,492.5a13.43,13.43,0,0,1-8.47-1.31L282,477.48a17.49,17.49,0,0,1-8.19-22C299.26,391.34,338.46,332.24,355.9,307.44Z"/><path class="cls-5" d="M303.82,488.74,282,477.48a17.49,17.49,0,0,1-8.19-22c25.44-64.12,64.64-123.22,82.08-148a17.46,17.46,0,0,1,22.23-5.51l21.7,11.1Z"/><path class="cls-1" d="M144.53,307.44a17.45,17.45,0,0,0-22.22-5.51L97.13,314.8a13.52,13.52,0,0,0-7.24,10.29l-6.41,49.6v0C115,441.1,156.32,487.86,156.32,487.86l27.07,4.64a13.43,13.43,0,0,0,8.47-1.31l26.56-13.71a17.49,17.49,0,0,0,8.19-22C201.17,391.34,162,332.24,144.53,307.44Z"/><path class="cls-2" d="M196.62,488.74l21.8-11.26a17.49,17.49,0,0,0,8.19-22c-25.44-64.12-64.63-123.22-82.08-148a17.45,17.45,0,0,0-22.22-5.51L100.6,313Z"/><path class="cls-3" d="M218.42,477.48l-26.56,13.71a13.43,13.43,0,0,1-8.47,1.31l-27.07-4.64S115,441.1,83.49,374.72v0l1-7.54c38.31,37.82,96,55.34,131.29,62.92,3.81,8.33,7.47,16.81,10.87,25.39A17.49,17.49,0,0,1,218.42,477.48Z"/><path class="cls-4" d="M215.74,430.07h0c.94,2.05,1.87,4.12,2.78,6.19l.05.1c.86,1.93,1.7,3.88,2.54,5.83.09.19.17.39.26.58.76,1.78,1.5,3.56,2.25,5.35.14.35.29.69.43,1q1.27,3.09,2.52,6.2l0,.09a17.49,17.49,0,0,1-8.19,22l-21.8,11.26-42.37-77.53A364.75,364.75,0,0,0,215.74,430.07Z"/><path class="cls-5" d="M144.53,307.44a17.45,17.45,0,0,0-22.22-5.51L97.13,314.8a13.52,13.52,0,0,0-7.24,10.29l-6.41,49.6v0C115,441.1,156.32,487.86,156.32,487.86l27.07,4.64a13.43,13.43,0,0,0,8.47-1.31l26.56-13.71a17.49,17.49,0,0,0,8.19-22C201.17,391.34,162,332.24,144.53,307.44Z"/><path class="cls-5" d="M196.62,488.74l21.8-11.26a17.49,17.49,0,0,0,8.19-22c-25.44-64.12-64.63-123.22-82.08-148a17.45,17.45,0,0,0-22.22-5.51L100.6,313Z"/><path class="cls-6" d="M251.28,7.31s205.53-3.33,227.1,211c9.08,90.26-33.58,176.2-86,245.47a60.58,60.58,0,0,1-48.27,24.1h0S495.28,316.69,440,164.38C393.56,36.3,250,42,250,42S106.44,36.3,60,164.38C4.72,316.69,155.89,487.86,155.89,487.86h0a60.58,60.58,0,0,1-48.27-24.1c-52.42-69.27-95.08-155.21-86-245.47C43.19,4,248.72,7.31,248.72,7.31Z"/><path class="cls-5" d="M251.28,7.31s205.53-3.33,227.1,211c9.08,90.26-33.58,176.2-86,245.47a60.58,60.58,0,0,1-48.27,24.1h0S495.28,316.69,440,164.38C393.56,36.3,250,42,250,42S106.44,36.3,60,164.38C4.72,316.69,155.89,487.86,155.89,487.86h0a60.58,60.58,0,0,1-48.27-24.1c-52.42-69.27-95.08-155.21-86-245.47C43.19,4,248.72,7.31,248.72,7.31Z"/></svg>